<svg xmlns="http://www.w3.org/2000/svg" viewBox="0 0 600 500" fill="none">
  <defs>
    <linearGradient id="bg" x1="0" y1="0" x2="600" y2="500" gradientUnits="userSpaceOnUse">
      <stop offset="0%" stop-color="#FFF5F5"/>
      <stop offset="100%" stop-color="#FFE8E8"/>
    </linearGradient>
    <linearGradient id="card" x1="0" y1="0" x2="1" y2="1">
      <stop offset="0%" stop-color="#FFFFFF"/>
      <stop offset="100%" stop-color="#FFF8F8"/>
    </linearGradient>
    <linearGradient id="accent" x1="0" y1="0" x2="1" y2="1">
      <stop offset="0%" stop-color="#FF4040"/>
      <stop offset="100%" stop-color="#FF6B6B"/>
    </linearGradient>
    <filter id="shadow" x="-10%" y="-10%" width="130%" height="130%">
      <feDropShadow dx="0" dy="8" stdDeviation="16" flood-color="#FF4040" flood-opacity="0.12"/>
    </filter>
  </defs>
  <!-- Background -->
  <rect width="600" height="500" rx="24" fill="url(#bg)"/>
  <!-- Main Card -->
  <rect x="100" y="60" width="400" height="380" rx="20" fill="url(#card)" filter="url(#shadow)" stroke="#FFE0E0" stroke-width="1"/>
  <!-- Car Icon -->
  <circle cx="300" cy="170" r="60" fill="url(#accent)" opacity="0.12"/>
  <!-- Car body -->
  <rect x="260" y="160" width="80" height="30" rx="6" fill="#FF4040"/>
  <!-- Car roof -->
  <path d="M275 160 L285 140 L315 140 L325 160" fill="#FF4040"/>
  <!-- Car wheels -->
  <circle cx="278" cy="195" r="10" fill="#333" stroke="#666" stroke-width="2"/>
  <circle cx="322" cy="195" r="10" fill="#333" stroke="#666" stroke-width="2"/>
  <!-- Card Lines -->
  <rect x="180" y="250" width="240" height="12" rx="6" fill="#FFD4D4"/>
  <rect x="200" y="275" width="200" height="8" rx="4" fill="#FFE8E8"/>
  <!-- Amount Display -->
  <rect x="170" y="310" width="260" height="60" rx="12" fill="url(#accent)" opacity="0.08"/>
  <text x="300" y="340" text-anchor="middle" font-family="Arial, sans-serif" font-size="14" fill="#FF4040" font-weight="600">AUTO FINANCING</text>
  <text x="300" y="360" text-anchor="middle" font-family="Arial, sans-serif" font-size="12" fill="#999">Drive your dreams forward</text>
  <!-- Decorative dots -->
  <circle cx="150" cy="100" r="4" fill="#FF4040" opacity="0.2"/>
  <circle cx="450" cy="400" r="6" fill="#FF4040" opacity="0.15"/>
  <circle cx="480" cy="100" r="3" fill="#FF6B6B" opacity="0.25"/>
</svg>